<?xml version="1.0" standalone="no"?>
<!DOCTYPE svg PUBLIC "-//W3C//DTD SVG 20010904//EN"
 "http://www.w3.org/TR/2001/REC-SVG-20010904/DTD/svg10.dtd">
<svg version="1.0" xmlns="http://www.w3.org/2000/svg"
 width="785.000000pt" height="785.000000pt" viewBox="0 0 785.000000 785.000000"
 preserveAspectRatio="xMidYMid meet">
<metadata>
Created by potrace 1.14, written by Peter Selinger 2001-2017
</metadata>
<g transform="translate(0.000000,785.000000) scale(0.100000,-0.100000)"
fill="#000000" stroke="none">
<path d="M4054 7608 c-7 -11 66 -9 91 2 15 7 5 9 -33 8 -29 -1 -55 -5 -58 -10z"/>
<path d="M4268 7613 c7 -3 16 -2 19 1 4 3 -2 6 -13 5 -11 0 -14 -3 -6 -6z"/>
<path d="M3686 7594 c-26 -7 -76 -15 -110 -18 -33 -3 -85 -10 -115 -16 -70
-13 -74 -13 -67 5 7 20 -3 19 -40 -4 -44 -27 -94 -34 -94 -14 0 11 -3 13 -13
5 -11 -9 -107 -51 -132 -57 -5 -1 -17 -5 -25 -8 -35 -15 -205 -67 -217 -67 -8
0 -41 -9 -75 -21 -37 -12 -63 -16 -67 -11 -8 14 -116 -31 -116 -48 0 -7 -7
-15 -15 -17 -13 -4 -13 -3 0 6 13 10 13 11 0 11 -8 0 -69 -29 -135 -65 -66
-36 -162 -85 -212 -110 -51 -24 -148 -78 -215 -118 -68 -41 -139 -82 -158 -92
-19 -9 -55 -36 -80 -59 -25 -24 -57 -51 -71 -62 -126 -93 -314 -259 -349 -309
-26 -38 -266 -285 -277 -285 -5 0 -22 -21 -36 -47 -30 -54 -51 -83 -60 -83 -4
0 -4 8 0 18 9 26 -56 -58 -77 -98 -9 -19 -15 -40 -13 -47 2 -6 -1 -15 -8 -19
-9 -5 -10 -2 -6 9 3 10 3 17 -2 17 -9 0 -61 -100 -61 -118 0 -6 -7 -12 -15
-12 -8 0 -22 -17 -30 -37 -9 -21 -23 -45 -32 -55 -9 -10 -13 -18 -10 -18 3 0
-1 -16 -9 -35 -8 -19 -11 -35 -7 -35 4 0 -3 -7 -15 -16 -24 -17 -154 -268
-173 -336 -7 -24 -20 -54 -29 -68 -23 -34 -31 -58 -21 -64 13 -9 0 -55 -13
-50 -9 3 -19 -18 -30 -63 -23 -87 -38 -135 -47 -148 -4 -5 -10 -28 -14 -50 -4
-22 -12 -45 -17 -52 -5 -6 -11 -22 -13 -35 -3 -12 -7 -34 -10 -48 -4 -23 -12
-61 -21 -114 -2 -10 -10 -42 -18 -70 -22 -76 -27 -113 -30 -196 -1 -42 -9 -86
-16 -100 -22 -38 -17 -669 5 -780 2 -13 7 -42 11 -64 3 -22 8 -44 11 -49 3 -4
7 -31 9 -60 6 -65 7 -69 27 -137 9 -30 19 -75 22 -100 4 -24 8 -47 10 -50 2
-3 6 -21 9 -40 3 -19 15 -66 26 -105 23 -77 28 -95 35 -140 6 -33 19 -70 45
-130 46 -103 60 -139 60 -152 0 -8 10 -24 23 -37 13 -13 21 -28 19 -34 -3 -10
24 -71 37 -82 3 -3 17 -18 31 -34 19 -22 21 -28 8 -23 -10 4 -18 3 -18 -1 0
-11 32 -56 46 -65 7 -4 11 -16 9 -26 -2 -11 2 -22 10 -24 9 -4 11 1 7 16 -7
31 0 21 41 -55 20 -37 50 -88 67 -114 33 -53 37 -69 16 -61 -9 4 -13 1 -10 -6
2 -7 18 -18 35 -25 24 -8 30 -15 25 -28 -7 -19 51 -114 69 -114 6 0 11 -10 12
-22 1 -11 6 -24 10 -27 5 -3 20 -22 33 -41 14 -19 40 -53 60 -74 19 -21 40
-44 45 -50 6 -6 22 -26 38 -44 15 -19 27 -31 27 -27 0 3 9 1 20 -5 11 -6 20
-21 20 -33 0 -26 62 -97 68 -77 3 7 0 15 -5 19 -6 3 -16 17 -23 31 -11 22 -9
21 17 -6 16 -17 36 -47 43 -65 16 -39 29 -51 85 -81 34 -18 37 -22 21 -28 -17
-5 -15 -9 15 -28 18 -11 36 -17 39 -12 3 5 30 -13 60 -40 30 -27 51 -52 47
-56 -3 -4 -13 -1 -22 6 -9 7 -18 11 -20 8 -3 -2 30 -30 73 -60 42 -31 102 -79
132 -107 59 -55 110 -88 110 -71 0 5 -3 10 -7 10 -5 1 -21 12 -38 25 -24 20
-26 25 -12 25 20 0 87 -66 87 -86 0 -17 50 -57 107 -85 26 -13 57 -31 68 -42
11 -10 48 -31 83 -47 34 -16 79 -41 99 -55 21 -14 48 -25 60 -25 12 0 25 -4
28 -10 8 -13 25 -13 25 -1 0 5 -16 15 -35 22 -46 17 -46 36 0 31 19 -2 35 -8
35 -12 0 -17 121 -69 169 -72 42 -3 48 -5 40 -19 -12 -23 13 -42 54 -43 18 -1
38 -5 45 -9 12 -8 154 -58 160 -57 1 1 17 -2 35 -5 17 -3 43 -7 57 -8 14 -2
33 -7 43 -12 9 -4 24 -5 32 -1 8 3 15 1 15 -4 0 -13 58 -26 154 -35 10 -1 24
-9 30 -17 6 -9 33 -19 59 -22 26 -4 58 -11 71 -16 13 -5 53 -9 88 -9 34 0 74
-3 88 -6 75 -16 141 -24 157 -18 8 3 10 16 6 34 -6 32 10 40 25 13 5 -9 13
-17 18 -17 5 -1 8 -8 6 -14 -2 -7 1 -13 5 -14 4 -1 22 -3 38 -5 17 -2 53 -4
80 -3 57 1 340 1 370 1 87 -2 172 5 182 15 7 6 32 14 55 18 24 4 51 14 60 22
15 14 19 14 33 -1 20 -20 32 -20 51 -1 9 8 21 15 27 15 8 0 7 -4 -1 -12 -21
-21 -13 -28 26 -22 56 8 75 15 97 34 11 10 36 21 55 25 41 8 120 35 135 46 6
4 20 6 30 5 11 -2 35 6 54 17 18 11 46 20 62 19 16 0 31 4 34 9 4 5 16 9 29 9
12 0 27 5 34 12 6 6 26 13 44 14 36 4 197 62 213 77 6 6 1 7 -15 2 -15 -4 -8
4 19 19 45 27 328 166 337 166 3 0 42 24 87 54 45 29 129 84 187 121 91 58
174 122 230 175 9 8 38 33 64 55 93 77 168 158 154 166 -7 5 -10 9 -5 10 4 1
10 2 15 3 11 2 66 40 74 50 4 6 2 16 -4 23 -7 9 -6 14 6 19 10 4 22 0 30 -11
12 -17 36 5 176 165 151 172 280 347 280 379 0 5 6 21 14 36 8 15 12 33 9 41
-2 7 5 19 16 26 12 7 21 21 21 30 0 9 6 21 13 25 19 11 27 37 16 54 -6 10 -9
10 -9 2 0 -7 -9 -13 -19 -13 -11 0 -28 -15 -41 -35 -12 -20 -28 -41 -34 -48
-12 -12 -39 -56 -41 -67 -5 -27 -21 -59 -39 -75 -12 -11 -40 -42 -61 -70 -22
-27 -43 -52 -46 -55 -4 -3 -23 -31 -44 -64 -26 -41 -40 -55 -45 -45 -7 10 -11
10 -24 0 -9 -8 -16 -21 -16 -30 0 -9 -18 -38 -39 -66 -22 -27 -37 -53 -35 -57
3 -5 -3 -11 -13 -15 -10 -3 -26 -15 -35 -27 -17 -21 -18 -21 -18 -1 0 14 -35
-16 -122 -106 -68 -70 -134 -132 -147 -139 -14 -7 -30 -17 -35 -21 -6 -5 -46
-34 -88 -65 -43 -30 -78 -59 -78 -63 0 -4 -30 -27 -67 -51 -38 -24 -69 -48
-71 -52 -2 -4 -10 -8 -18 -8 -8 0 -14 -4 -14 -10 0 -5 -6 -10 -12 -10 -7 0
-47 -23 -88 -50 -41 -27 -80 -50 -86 -50 -6 0 -19 -9 -29 -20 -18 -20 -45 -27
-45 -12 0 4 18 17 41 30 51 30 72 46 132 104 30 29 55 45 67 43 13 -3 22 5 29
26 5 16 16 29 23 29 7 0 31 19 53 41 22 23 59 54 82 70 28 19 40 35 37 44 -5
12 3 15 32 15 67 1 168 62 169 102 1 7 6 12 13 10 15 -3 208 196 204 210 -1 5
18 32 43 60 45 50 63 87 25 53 -26 -23 -26 -11 0 17 17 19 20 19 26 5 8 -21
24 -22 24 -2 0 8 4 15 10 15 13 0 80 60 80 72 0 6 13 25 29 42 105 112 183
228 295 440 35 68 41 98 10 60 -14 -18 -14 -17 -3 6 6 14 24 41 39 60 15 19
37 53 49 75 12 22 30 54 41 70 11 17 24 41 30 55 6 14 15 34 20 45 13 28 100
248 103 260 1 6 5 15 9 20 3 6 25 70 48 144 24 73 50 149 59 167 19 38 20 123
2 134 -17 10 -20 40 -11 91 5 24 11 62 14 84 4 22 14 67 23 100 19 74 22 101
12 140 -4 17 -10 66 -14 110 -6 76 -9 101 -19 153 -4 17 0 22 15 22 11 0 19 7
19 16 0 8 -4 12 -10 9 -13 -8 -13 -9 -16 110 -1 55 -3 100 -4 100 0 0 -2 44
-3 98 -2 58 -8 102 -15 109 -7 7 -12 28 -12 48 0 19 -7 45 -15 56 -12 19 -12
24 0 40 19 25 19 35 0 28 -12 -5 -13 -1 -4 25 9 26 7 44 -11 101 -12 39 -26
70 -30 70 -15 0 -19 -30 -9 -56 5 -15 12 -59 14 -98 8 -111 18 -407 15 -446
-2 -44 -2 -120 0 -334 1 -97 -3 -173 -8 -178 -6 -6 -10 25 -11 85 -1 53 -5
115 -9 139 -5 24 -6 86 -4 138 6 146 5 172 -10 181 -25 16 -33 -38 -43 -301
-3 -69 -7 -152 -9 -185 -2 -33 -7 -120 -11 -193 -4 -88 -13 -153 -26 -194 -10
-33 -19 -73 -19 -87 0 -15 -7 -37 -16 -49 -9 -13 -18 -53 -21 -90 -3 -37 -9
-75 -14 -84 -5 -10 -14 -41 -19 -70 -6 -29 -25 -84 -44 -123 -19 -38 -44 -104
-56 -145 -12 -41 -37 -105 -55 -141 l-33 -67 24 -23 c26 -25 25 -40 -2 -18
-15 12 -16 12 -10 -8 4 -12 2 -24 -4 -28 -5 -3 -10 -1 -10 4 0 19 -25 12 -39
-11 -7 -12 -29 -60 -48 -107 -20 -50 -48 -101 -68 -121 -18 -19 -36 -47 -40
-61 -3 -14 -19 -40 -35 -59 -16 -19 -31 -43 -34 -54 -3 -12 -29 -46 -58 -76
-30 -30 -61 -72 -71 -92 -10 -21 -24 -41 -31 -45 -7 -4 -18 -18 -25 -30 -6
-12 -23 -28 -39 -35 -15 -7 -45 -41 -68 -76 -22 -34 -50 -71 -60 -81 -10 -10
-32 -36 -49 -56 -41 -51 -85 -95 -95 -95 -5 0 -39 -29 -77 -65 -37 -36 -77
-68 -88 -71 -10 -4 -28 -17 -38 -31 -10 -13 -33 -31 -50 -40 -18 -8 -59 -36
-92 -60 -33 -25 -78 -54 -100 -64 -22 -10 -53 -30 -69 -44 -16 -14 -33 -25
-37 -25 -4 0 -14 -6 -22 -14 -8 -8 -50 -35 -93 -60 -73 -42 -129 -70 -259
-130 -27 -13 -71 -33 -96 -45 -25 -11 -50 -21 -56 -21 -6 0 -35 -11 -64 -24
-29 -14 -56 -23 -61 -20 -4 3 -8 1 -8 -5 0 -8 -53 -21 -105 -26 -5 0 -27 -8
-49 -18 -51 -23 -73 -23 -55 -1 17 21 56 37 94 38 17 1 44 9 62 19 17 9 50 19
74 22 23 3 50 12 59 20 9 8 31 18 49 21 31 7 182 99 189 116 2 4 19 8 37 8 24
0 62 17 125 55 50 30 95 55 100 55 6 0 10 4 10 9 0 5 16 15 35 22 19 7 35 16
35 20 0 4 15 13 33 20 17 7 43 26 55 41 13 16 28 28 33 28 17 0 121 75 189
136 102 92 259 246 258 253 -3 24 4 33 22 28 10 -3 20 -1 22 3 2 5 23 30 48
57 25 26 56 63 69 80 12 18 28 33 36 33 15 0 50 50 47 68 -2 6 6 12 16 12 11
0 26 8 33 17 13 16 12 17 -3 4 -22 -17 -24 2 -2 20 8 7 25 30 36 52 11 22 29
49 40 61 38 39 108 155 163 269 30 63 55 119 55 125 0 6 3 12 8 14 7 3 84 151
85 165 0 4 13 35 27 68 15 33 35 85 45 115 10 30 24 64 32 76 7 11 11 23 7 26
-4 5 3 39 21 98 1 3 7 18 13 33 7 16 12 34 12 41 0 6 5 17 11 23 6 6 11 32 13
59 1 27 4 54 8 59 6 11 15 50 24 110 3 22 10 45 14 50 16 19 29 129 35 295 3
108 -6 89 -29 -60 l-15 -95 5 120 c9 205 13 598 7 633 -9 56 -20 35 -15 -30 8
-108 5 -167 -23 -453 -10 -98 -16 -151 -21 -190 -3 -22 -7 -53 -9 -70 -2 -16
-6 -43 -8 -60 -3 -16 -8 -49 -12 -72 -4 -24 -11 -43 -16 -43 -9 0 -6 28 11
125 11 65 10 36 14 379 2 165 0 311 -4 325 -8 30 -2 54 11 45 13 -8 11 20 -2
33 -6 6 -13 31 -15 55 -2 23 -6 53 -9 66 -13 56 -16 69 -21 107 -3 22 -7 58
-10 80 -2 22 -5 47 -7 55 -2 8 -7 33 -12 55 -4 22 -14 54 -21 70 -7 17 -17 59
-24 93 -14 81 -27 107 -56 121 -21 9 -22 13 -13 41 8 23 8 34 -1 45 -14 17
-45 21 -34 4 3 -6 8 -28 11 -48 2 -20 15 -74 28 -121 13 -47 25 -103 26 -125
2 -22 6 -44 10 -50 6 -10 21 -73 24 -110 1 -11 5 -36 9 -55 4 -19 8 -51 9 -72
2 -20 10 -44 18 -54 7 -10 9 -15 2 -11 -21 13 -23 -10 -3 -35 20 -26 21 -55 3
-66 -6 -4 -13 -16 -15 -27 -1 -11 -7 -23 -11 -26 -4 -3 -3 -19 4 -35 18 -48
32 -184 18 -184 -3 0 -5 -11 -3 -25 1 -14 -3 -31 -10 -38 -8 -8 -12 -60 -12
-164 -1 -96 -5 -157 -12 -165 -15 -18 -32 -99 -36 -167 -2 -31 -11 -71 -20
-89 -9 -17 -14 -32 -11 -32 3 0 -1 -13 -10 -30 -8 -16 -15 -33 -15 -37 4 -34
-57 -249 -100 -352 -16 -40 -31 -88 -32 -105 -1 -17 -7 -35 -14 -41 -14 -12
-50 -81 -100 -190 -20 -44 -61 -120 -90 -169 -30 -49 -54 -92 -54 -95 0 -4 -9
-14 -20 -24 -11 -9 -20 -26 -20 -37 0 -11 -4 -20 -8 -20 -5 0 -23 -20 -41 -45
-17 -24 -37 -50 -44 -57 -7 -7 -34 -42 -62 -78 -71 -93 -104 -130 -246 -270
-140 -139 -179 -173 -324 -281 -181 -134 -379 -251 -568 -334 -56 -25 -111
-50 -122 -55 -39 -18 -100 -42 -115 -45 -8 -2 -33 -10 -55 -18 -49 -19 -194
-62 -255 -77 -25 -6 -54 -13 -65 -15 -27 -7 -76 -17 -100 -20 -20 -3 -59 -11
-105 -20 -14 -3 -51 -7 -83 -10 -32 -3 -62 -7 -66 -9 -6 -4 -299 -20 -326 -18
-5 0 -66 3 -135 7 -69 3 -141 8 -160 10 -19 3 -59 7 -87 9 -29 2 -65 7 -80 10
-36 7 -83 16 -108 20 -11 2 -40 8 -65 14 -25 6 -60 14 -79 17 -19 3 -38 8 -43
11 -5 3 -24 8 -41 11 -42 7 -292 91 -337 113 -19 10 -39 19 -45 20 -46 10
-239 106 -367 182 -244 144 -458 313 -647 512 -31 33 -65 69 -76 80 -58 61
-117 137 -111 144 4 4 14 -2 22 -13 40 -56 124 -145 269 -283 177 -168 207
-195 248 -220 15 -9 27 -20 27 -24 0 -4 5 -8 11 -8 6 0 16 -6 23 -12 8 -7 22
-19 32 -25 118 -79 155 -103 158 -103 2 0 41 -22 87 -48 114 -65 302 -156 369
-178 30 -10 82 -30 115 -45 86 -39 191 -68 260 -72 16 -1 35 -7 40 -14 6 -7
24 -15 40 -18 17 -2 41 -7 55 -10 197 -44 331 -55 630 -55 113 0 230 2 260 4
107 8 195 16 220 21 14 3 36 7 50 10 36 7 82 15 105 19 31 6 136 33 185 48 25
8 47 15 50 16 3 0 18 5 33 11 16 6 31 11 34 11 4 0 14 7 24 16 9 8 32 18 51
20 18 3 53 11 78 19 56 16 310 124 330 140 8 7 22 14 31 18 26 9 277 175 301
199 12 12 28 23 35 24 31 5 143 102 143 124 0 19 43 50 55 40 15 -13 41 14 50
53 5 17 19 34 39 43 l31 16 -27 -25 c-28 -25 -35 -37 -20 -37 13 0 132 121
132 135 0 7 9 15 19 18 11 2 32 23 48 46 15 22 32 40 36 41 18 1 137 154 137
177 0 7 11 20 26 29 22 15 59 69 52 77 -6 6 35 87 44 87 4 0 8 9 8 19 0 10 7
21 15 25 8 3 15 12 15 20 0 8 6 21 13 28 31 30 169 302 217 425 17 43 35 87
40 98 4 11 22 61 39 110 27 81 33 110 46 202 11 83 32 172 45 188 4 6 7 24 6
40 -1 17 1 46 6 66 24 113 44 606 25 626 -15 14 -21 -12 -23 -100 -5 -224 -7
-272 -15 -306 -5 -20 -12 -65 -15 -101 -3 -36 -8 -76 -10 -90 -3 -14 -7 -41
-9 -60 -6 -59 -35 -187 -50 -224 -8 -20 -15 -49 -15 -65 0 -17 -7 -51 -16 -77
-9 -26 -17 -59 -19 -74 -2 -14 -15 -51 -28 -82 -14 -31 -28 -70 -32 -88 -4
-20 -15 -34 -27 -38 -16 -4 -19 -11 -14 -33 3 -19 1 -28 -6 -26 -6 1 -15 -14
-20 -33 -5 -19 -18 -46 -27 -60 -10 -14 -34 -55 -54 -92 -21 -38 -53 -98 -73
-135 -21 -38 -50 -87 -65 -111 -16 -24 -29 -47 -29 -52 0 -5 -10 -19 -22 -32
-13 -13 -43 -50 -67 -83 -71 -96 -147 -182 -276 -309 -143 -141 -409 -366
-434 -366 -5 0 -11 -4 -13 -8 -5 -12 -348 -212 -363 -212 -2 0 -36 -15 -77
-34 -93 -43 -254 -106 -271 -106 -7 0 -17 -4 -23 -8 -8 -8 -140 -49 -182 -57
-9 -2 -17 -4 -17 -5 0 -1 -7 -3 -15 -5 -8 -1 -42 -10 -75 -18 -172 -44 -333
-60 -615 -60 -155 0 -405 8 -405 13 0 2 -21 5 -93 14 -29 3 -63 8 -75 11 -12
3 -33 7 -47 9 -104 17 -388 106 -545 171 -114 47 -329 154 -333 166 -2 5 -10
9 -17 9 -12 0 -266 165 -310 202 -11 9 -51 42 -90 73 -114 92 -272 250 -395
395 -12 14 -29 34 -38 45 -10 11 -40 52 -67 90 -27 39 -53 72 -57 73 -5 2 -8
10 -8 17 0 8 -6 20 -13 27 -14 15 -67 95 -67 102 0 2 -18 33 -39 68 -78 128
-188 376 -240 543 -13 39 -25 77 -28 85 -3 8 -7 21 -9 29 -1 8 -6 26 -10 40
-4 14 -8 29 -9 34 -2 4 -4 9 -5 12 -3 6 -4 9 -13 55 -4 19 -9 46 -12 60 -40
186 -48 283 -49 555 0 236 9 396 29 514 4 20 8 45 10 56 12 77 17 104 25 135
5 19 11 46 14 60 2 14 16 68 31 120 109 381 334 769 659 1138 88 100 285 291
371 359 117 92 314 233 326 233 6 0 5 -9 -2 -21 -13 -26 -12 -25 93 48 43 29
81 53 85 53 4 0 25 16 47 35 21 19 42 33 46 30 5 -3 41 11 80 31 145 72 617
235 695 240 49 3 190 29 205 39 23 14 147 20 410 19 308 -1 337 -3 435 -28 33
-9 89 -18 125 -21 190 -15 221 -21 360 -67 52 -18 98 -33 103 -34 4 -1 9 -3
12 -4 3 -1 8 -3 13 -5 4 -1 14 -4 22 -8 8 -3 47 -17 85 -30 83 -29 213 -83
310 -128 39 -18 72 -33 75 -34 3 0 46 -21 95 -44 161 -78 236 -111 247 -111
17 0 -28 45 -104 103 -38 28 -64 53 -58 55 6 2 0 12 -12 21 -36 27 -168 105
-220 129 -61 28 -137 62 -163 72 -11 4 -53 22 -94 39 -40 17 -83 31 -95 31
-26 0 -86 35 -86 51 0 13 14 9 153 -47 60 -24 116 -44 124 -44 23 0 176 -72
308 -145 90 -49 189 -107 195 -114 3 -3 14 -11 25 -18 11 -7 43 -26 70 -44
l50 -31 -55 52 c-149 141 -178 168 -221 203 -25 20 -50 37 -55 37 -5 0 -20 10
-34 21 -14 11 -18 18 -10 14 8 -4 -1 7 -20 23 -19 17 -37 30 -40 29 -10 -3
-69 37 -64 44 6 11 114 -35 189 -81 36 -22 70 -40 75 -40 6 0 10 -5 10 -10 0
-6 10 -14 23 -19 29 -11 251 -161 255 -172 2 -5 7 -9 12 -9 27 0 168 -111 350
-276 19 -18 58 -52 87 -76 28 -24 62 -57 74 -73 13 -17 39 -43 58 -60 19 -16
46 -40 59 -52 21 -19 42 -30 42 -20 -1 13 -31 81 -51 117 -15 25 -30 52 -35
61 -27 49 -252 286 -334 351 -25 20 -65 48 -90 62 -53 30 -34 34 28 6 23 -10
42 -18 42 -16 0 2 -19 16 -42 32 -24 16 -45 31 -48 35 -3 3 -22 18 -42 33 -21
15 -40 36 -43 46 -3 11 -20 22 -38 26 -18 4 -48 20 -67 35 -19 16 -40 29 -46
29 -6 0 -18 7 -25 16 -7 9 -22 20 -34 25 -11 5 -42 22 -70 39 -27 16 -64 37
-82 46 -17 9 -33 25 -36 34 -4 16 -116 100 -133 100 -5 0 -22 13 -39 29 -72
70 -412 224 -543 247 -15 3 -54 13 -87 24 -33 10 -77 22 -97 25 -21 3 -38 10
-38 14 0 13 34 24 38 12 4 -13 32 -15 32 -2 0 14 -31 23 -95 27 -55 4 -100 10
-100 14 0 4 -45 9 -111 14 -38 3 -83 10 -98 16 -37 14 -99 13 -114 -2 -16 -16
-384 -17 -404 -1 -19 16 -239 14 -302 -3z m788 -3 c3 -5 -1 -11 -9 -15 -9 -3
-15 0 -15 9 0 16 16 20 24 6z m906 -327 c0 -2 -7 -4 -15 -4 -8 0 -15 4 -15 10
0 5 7 7 15 4 8 -4 15 -8 15 -10z m231 -96 c14 -9 37 -20 52 -23 26 -7 54 -31
45 -40 -2 -3 -45 15 -94 40 -67 33 -81 44 -59 43 17 -1 42 -10 56 -20z m-859
-46 c12 -12 -65 -6 -107 8 -25 8 -19 9 34 6 35 -2 68 -9 73 -14z m998 -32 c0
-5 -7 -7 -15 -4 -8 4 -15 8 -15 10 0 2 7 4 15 4 8 0 15 -4 15 -10z m-844 -15
c17 -13 16 -14 -13 -4 -34 11 -42 19 -20 19 7 0 22 -7 33 -15z m121 -21 c33
-9 19 -21 -16 -16 -17 2 -28 8 -25 13 6 10 11 11 41 3z m403 -4 c0 -5 -7 -10
-15 -10 -8 0 -15 5 -15 10 0 6 7 10 15 10 8 0 15 -4 15 -10z m90 -45 c10 -12
10 -15 -3 -15 -8 0 -20 7 -27 15 -10 12 -10 15 3 15 8 0 20 -7 27 -15z m-2490
-5 c0 -5 -4 -10 -10 -10 -5 0 -10 5 -10 10 0 6 5 10 10 10 6 0 10 -4 10 -10z
m170 -24 c0 -2 -7 -6 -15 -10 -8 -3 -15 -1 -15 4 0 6 7 10 15 10 8 0 15 -2 15
-4z m-150 -14 c0 -13 -12 -22 -22 -16 -10 6 -1 24 13 24 5 0 9 -4 9 -8z m50
-12 c0 -5 -8 -10 -17 -10 -15 0 -16 2 -3 10 19 12 20 12 20 0z m-95 -39 c-3
-6 -11 -11 -17 -11 -6 0 -6 6 2 15 14 17 26 13 15 -4z m-100 -1 c-3 -5 -11
-10 -16 -10 -6 0 -7 5 -4 10 3 6 11 10 16 10 6 0 7 -4 4 -10z m115 -25 c-33
-19 -49 -19 -24 0 10 8 26 14 34 14 9 0 4 -6 -10 -14z m2500 -75 c0 -5 -7 -7
-15 -4 -8 4 -15 8 -15 10 0 2 7 4 15 4 8 0 15 -4 15 -10z m-2664 -15 c-11 -8
-22 -12 -25 -9 -6 6 19 24 34 24 6 -1 1 -7 -9 -15z m-251 -145 c-3 -5 -12 -10
-19 -10 -7 0 -25 -11 -41 -26 -26 -24 -41 -29 -27 -8 22 32 106 75 87 44z
m4906 -2363 c-1 -12 -15 -9 -19 4 -3 6 1 10 8 8 6 -3 11 -8 11 -12z m-54 -99
c-3 -8 -6 -5 -6 6 -1 11 2 17 5 13 3 -3 4 -12 1 -19z m33 -125 c0 -32 -9 -25
-16 12 -3 17 -1 24 6 20 5 -3 10 -18 10 -32z m5 -244 c-10 -15 -25 -10 -19 6
4 8 10 12 15 9 5 -3 7 -10 4 -15z m-85 -31 c0 -16 -3 -19 -11 -11 -6 6 -8 16
-5 22 11 17 16 13 16 -11z m115 -100 c1 -24 -2 -52 -6 -63 -4 -11 -13 -40 -20
-65 -12 -41 -46 -86 -57 -76 -2 3 6 20 19 37 13 18 25 51 26 74 9 121 15 157
26 146 6 -6 11 -30 12 -53z m-125 -172 c0 -3 -4 -8 -10 -11 -5 -3 -10 -1 -10
4 0 6 5 11 10 11 6 0 10 -2 10 -4z m-223 -48 c-3 -8 -6 -5 -6 6 -1 11 2 17 5
13 3 -3 4 -12 1 -19z m190 -28 c1 -10 -2 -22 -7 -25 -6 -4 -10 7 -10 26 0 34
12 33 17 -1z m-204 -98 c-3 -15 -6 -36 -8 -47 -1 -11 -3 -20 -4 -20 -2 0 -4
-8 -6 -19 -2 -10 -9 -40 -15 -66 -6 -26 -13 -56 -15 -66 -2 -11 -4 -19 -5 -19
-1 0 -4 -11 -5 -25 -8 -57 -27 -116 -51 -154 l-25 -41 5 40 c2 22 12 65 21 95
17 58 33 114 40 142 2 9 10 27 19 40 8 13 17 46 20 73 4 28 8 59 10 70 3 11 5
24 5 28 1 5 5 6 10 2 5 -3 7 -18 4 -33z m-6230 -7 c4 -8 2 -17 -3 -20 -6 -4
-10 -4 -10 -1 0 2 -3 11 -6 20 -3 9 -2 16 4 16 5 0 12 -7 15 -15z m6570 -18
c4 3 7 -1 7 -11 0 -9 -6 -19 -12 -21 -7 -3 -14 -21 -15 -41 -2 -37 -39 -124
-53 -124 -4 0 -4 17 1 38 5 20 12 46 14 57 21 92 29 114 40 105 7 -5 15 -7 18
-3z m-6503 -247 c-1 -12 -4 -11 -15 4 -8 10 -12 23 -8 29 7 11 23 -12 23 -33z
m6375 -20 c3 -5 -1 -10 -9 -10 -9 0 -16 5 -16 10 0 6 4 10 9 10 6 0 13 -4 16
-10z m-49 -68 c12 -24 26 -19 17 5 -4 11 -2 14 8 11 17 -6 13 -46 -6 -68 -7
-8 -16 -26 -19 -40 -19 -66 -27 -77 -52 -72 -29 5 -31 18 -4 25 15 4 20 14 21
44 1 34 2 36 10 13 6 -19 7 -12 5 25 -3 28 -8 58 -12 69 -10 27 18 16 32 -12z
m-306 8 c0 -5 -4 -10 -10 -10 -5 0 -10 5 -10 10 0 6 5 10 10 10 6 0 10 -4 10
-10z m242 -36 c-11 -23 -18 -31 -20 -21 -4 19 15 57 28 57 5 0 2 -16 -8 -36z
m-272 -93 c-13 -26 -26 -27 -33 -2 -3 14 0 17 14 14 11 -3 19 0 19 8 0 7 3 10
6 7 3 -4 1 -16 -6 -27z m220 -35 c0 -2 -7 -9 -15 -16 -13 -11 -14 -10 -9 4 5
14 24 23 24 12z m127 -18 c-3 -8 -6 -5 -6 6 -1 11 2 17 5 13 3 -3 4 -12 1 -19z
m-36 -60 c11 -21 11 -22 -4 -9 -10 7 -17 17 -17 22 0 15 9 10 21 -13z m-106
-18 c-3 -5 -14 -10 -23 -10 -15 0 -15 2 -2 10 20 13 33 13 25 0z m-245 -45 c0
-14 -4 -25 -10 -25 -5 0 -10 11 -10 25 0 14 5 25 10 25 6 0 10 -11 10 -25z
m174 -9 c-3 -9 -10 -16 -15 -16 -6 0 -5 9 1 21 13 24 24 20 14 -5z m-234 -30
c0 -3 -4 -8 -10 -11 -5 -3 -10 -1 -10 4 0 6 5 11 10 11 6 0 10 -2 10 -4z m-1
-132 c-13 -34 -24 -16 -14 23 4 17 10 22 16 16 6 -6 6 -20 -2 -39z m221 36 c0
-5 -2 -10 -4 -10 -3 0 -8 5 -11 10 -3 6 -1 10 4 10 6 0 11 -4 11 -10z m-5896
-16 c9 -24 2 -26 -12 -4 -7 11 -8 20 -3 20 5 0 12 -7 15 -16z m73 -128 c20
-41 103 -166 127 -191 23 -25 56 -77 56 -89 0 -5 -13 7 -30 25 -16 19 -30 39
-30 46 0 6 -4 13 -8 15 -9 3 -112 153 -112 163 0 3 -12 24 -27 48 -16 26 -20
37 -9 28 10 -8 24 -28 33 -45z m5528 -25 c-3 -12 -13 -21 -21 -21 -12 0 -12 4
2 25 19 29 29 27 19 -4z m235 -105 c0 -8 -9 -16 -20 -19 -14 -3 -18 -1 -13 6
4 7 8 15 9 20 1 4 2 10 3 13 2 10 21 -7 21 -20z m10 -66 c-11 -21 -12 -21 -29
-3 -16 16 -16 18 -2 21 9 2 20 8 26 13 15 15 18 -6 5 -31z m-5544 -110 c18 0
18 -16 0 -23 -8 -3 -22 4 -33 15 -17 21 -17 21 0 15 10 -4 25 -7 33 -7z m5584
-20 c0 -5 -4 -10 -10 -10 -5 0 -10 5 -10 10 0 6 5 10 10 10 6 0 10 -4 10 -10z
m-6285 -30 c3 -6 -1 -7 -9 -4 -18 7 -21 14 -7 14 6 0 13 -4 16 -10z m6149
-165 c-4 -8 -10 -12 -15 -9 -11 6 -2 24 11 24 5 0 7 -7 4 -15z m-184 -35 c0
-5 -5 -10 -11 -10 -5 0 -7 5 -4 10 3 6 8 10 11 10 2 0 4 -4 4 -10z m160 -14
c0 -3 -4 -8 -10 -11 -5 -3 -10 -1 -10 4 0 6 5 11 10 11 6 0 10 -2 10 -4z
m-194 -31 c-9 -9 -16 -13 -16 -8 0 12 22 34 28 28 2 -2 -3 -11 -12 -20z
m-5776 -36 c0 -5 -4 -9 -8 -9 -5 0 -9 7 -9 15 0 8 4 12 9 9 4 -3 8 -9 8 -15z
m180 -220 c0 -14 -17 -10 -23 5 -4 10 -1 13 9 9 7 -3 14 -9 14 -14z m5415 1
c-3 -5 -10 -10 -16 -10 -5 0 -9 5 -9 10 0 6 7 10 16 10 8 0 12 -4 9 -10z m149
-14 c-3 -8 -12 -17 -20 -20 -11 -4 -12 -2 -1 14 14 23 29 27 21 6z m-343 -128
c-11 -12 -25 -35 -31 -52 -5 -17 -19 -37 -30 -44 -26 -16 -26 0 0 23 11 10 18
20 15 23 -6 6 45 72 57 72 5 0 0 -10 -11 -22z m29 -22 c0 -2 -7 -9 -15 -16
-12 -10 -15 -10 -15 4 0 9 7 16 15 16 8 0 15 -2 15 -4z m-5048 -78 c-9 -9 -12
-7 -12 12 0 19 3 21 12 12 9 -9 9 -15 0 -24z m5019 -101 c-13 -12 -20 -15 -16
-7 14 26 28 41 33 35 3 -3 -5 -16 -17 -28z m-4640 -213 c21 -24 22 -26 3 -16
-25 13 -50 42 -37 42 5 0 20 -12 34 -26z m3939 -149 c-7 -9 -15 -13 -17 -11
-7 7 7 26 19 26 6 0 6 -6 -2 -15z m-3725 -14 c3 -5 1 -12 -5 -16 -5 -3 -10 1
-10 9 0 18 6 21 15 7z m3815 -36 c0 -2 -10 -9 -22 -15 -22 -11 -22 -10 -4 4
21 17 26 19 26 11z m-3333 -32 c-8 -7 -37 9 -31 19 3 5 12 4 20 -3 8 -6 13
-14 11 -16z m3038 -34 c-10 -15 -25 -10 -19 6 4 8 10 12 15 9 5 -3 7 -10 4
-15z m-3268 -30 c123 -65 131 -81 12 -24 -74 35 -92 38 -69 10 18 -21 3 -19
-27 5 -14 11 -20 20 -13 20 7 0 10 7 6 15 -8 23 7 18 91 -26z m2583 11 c0 -14
-29 -27 -75 -35 -38 -6 -39 -5 -20 10 11 9 28 14 37 12 9 -3 19 1 22 9 6 16
36 19 36 4z m576 -25 c-37 -33 -56 -40 -41 -15 7 12 66 50 75 50 3 -1 -13 -16
-34 -35z m-891 -45 c3 -5 -3 -10 -15 -10 -12 0 -18 5 -15 10 3 6 10 10 15 10
5 0 12 -4 15 -10z m784 -5 c-19 -19 -127 -57 -148 -52 -18 5 -16 6 59 28 25 7
56 19 70 26 33 17 38 16 19 -2z m-1553 -37 c-20 -11 -44 1 -25 12 6 5 19 6 27
3 12 -5 12 -7 -2 -15z m419 2 c-3 -5 -13 -10 -21 -10 -8 0 -12 5 -9 10 3 6 13
10 21 10 8 0 12 -4 9 -10z m-1117 -46 c21 -15 31 -18 97 -30 17 -3 35 -10 40
-16 22 -24 -120 14 -155 42 -30 23 -14 27 18 4z m2048 1 c-26 -19 -42 -19 -26
0 7 8 20 15 29 15 13 -1 13 -3 -3 -15z m-206 -15 c0 -21 -138 -75 -219 -86
-49 -6 -50 11 -1 20 14 2 26 5 28 7 2 2 6 3 52 12 19 4 37 6 40 6 3 -1 25 10
50 24 53 31 50 30 50 17z m100 -3 c0 -7 -9 -18 -20 -25 -24 -15 -27 0 -4 22
19 19 24 20 24 3z m330 -26 c0 -10 -24 -21 -43 -21 -7 0 -3 7 7 15 22 17 36
19 36 6z m-1705 -61 c16 -2 -28 -19 -52 -19 -16 -1 -21 3 -17 14 4 10 15 14
33 11 14 -2 31 -5 36 -6z m602 -16 c-3 -3 -12 -4 -19 -1 -8 3 -5 6 6 6 11 1
17 -2 13 -5z m263 -4 c0 -5 -8 -10 -17 -11 -10 0 -28 -2 -40 -5 -13 -2 -23 0
-23 5 0 9 24 17 63 20 9 0 17 -3 17 -9z m-287 -24 c4 -10 1 -13 -8 -9 -8 3
-12 9 -9 14 7 12 11 11 17 -5z"/>
<path d="M2335 6475 c-16 -13 -25 -24 -20 -25 6 0 24 11 40 25 17 13 26 24 20
25 -5 0 -23 -11 -40 -25z"/>
<path d="M4619 6382 c-47 -6 -62 -35 -74 -142 -11 -95 -23 -694 -24 -1180 -1
-251 5 -397 25 -615 3 -33 7 -85 9 -115 4 -62 14 -175 20 -235 2 -22 6 -67 10
-100 3 -33 8 -78 10 -100 3 -22 7 -65 11 -95 3 -30 7 -66 10 -80 4 -22 11 -78
19 -150 1 -14 5 -45 9 -70 4 -25 10 -58 12 -75 3 -16 7 -37 9 -45 2 -8 7 -35
10 -60 4 -24 9 -48 11 -52 3 -4 7 -16 9 -25 12 -65 67 -267 81 -304 41 -104
106 -199 194 -286 92 -91 114 -84 114 39 -1 103 -14 319 -29 458 -4 36 -9 83
-10 105 -2 22 -6 56 -9 75 -14 75 -13 182 1 222 17 50 21 57 195 283 133 174
178 221 186 196 2 -6 10 -17 17 -25 16 -15 275 -536 267 -536 -3 0 1 -8 9 -17
8 -10 20 -29 27 -42 8 -13 22 -39 32 -57 34 -60 95 -149 107 -157 7 -4 13 -12
13 -18 0 -5 6 -17 13 -25 20 -24 30 -36 86 -104 57 -70 157 -176 213 -226 66
-60 211 -142 296 -168 33 -11 29 24 -12 109 -33 67 -61 142 -72 194 -3 13 -11
39 -19 57 -8 19 -11 34 -8 34 3 0 1 6 -5 13 -6 7 -13 24 -16 37 -14 76 -116
300 -370 810 -91 184 -166 340 -166 346 0 7 -3 14 -7 16 -5 2 -16 20 -25 40
-20 43 -16 50 62 109 25 18 47 36 50 39 3 3 32 28 65 56 178 146 226 194 219
216 -4 12 2 25 18 38 l23 19 -22 -6 c-27 -6 -28 -1 -9 30 15 22 19 45 17 84
-1 21 -2 22 -43 9 -24 -7 -67 -23 -97 -35 -55 -22 -89 -38 -298 -138 -61 -29
-123 -53 -136 -53 -22 0 -43 37 -227 408 -247 496 -310 627 -407 845 -83 188
-153 326 -188 373 -23 30 -83 67 -115 70 -8 1 -26 4 -40 6 -14 2 -37 2 -51 0z
m356 -692 c3 -5 1 -10 -4 -10 -6 0 -11 5 -11 10 0 6 2 10 4 10 3 0 8 -4 11
-10z m192 -310 c113 -233 158 -322 203 -400 35 -60 53 -96 108 -220 11 -25 29
-66 41 -92 24 -54 25 -60 10 -75 -9 -9 -16 -7 -29 10 -23 30 -48 86 -54 122
-6 35 -69 181 -106 245 -27 47 -135 265 -177 360 -14 30 -44 98 -68 150 -102
227 -52 157 72 -100z m-78 41 c1 -9 -2 -11 -8 -5 -16 16 -62 104 -55 104 4 0
2 6 -3 13 -6 6 -13 26 -17 42 -3 17 14 -8 39 -55 24 -47 44 -92 44 -99z m-314
23 c5 -65 9 -132 20 -349 4 -83 7 -131 20 -335 8 -132 16 -234 21 -270 2 -19
7 -66 10 -105 3 -38 7 -83 9 -100 5 -50 16 -197 19 -256 3 -62 -16 -107 -34
-79 -5 8 -10 27 -11 43 -1 15 -2 30 -3 35 -6 22 -24 197 -31 295 -25 348 -49
1146 -37 1185 8 23 12 7 17 -64z m365 -151 c0 -13 -3 -13 -15 -3 -8 7 -12 16
-9 21 8 13 24 1 24 -18z m-196 -161 c18 -37 57 -121 86 -187 28 -66 58 -133
65 -150 15 -34 67 -158 118 -283 19 -46 32 -94 30 -106 -3 -13 -38 -59 -80
-102 -41 -44 -98 -105 -126 -136 -28 -32 -55 -58 -58 -58 -18 0 -35 114 -54
365 -1 22 -6 74 -9 115 -21 236 -31 624 -16 615 6 -4 26 -37 44 -73z m426
-329 c53 -111 57 -118 75 -173 13 -36 13 -42 2 -30 -14 14 -107 221 -121 268
-14 45 2 20 44 -65z m351 -555 c13 -24 29 -52 36 -63 7 -11 16 -29 22 -40 5
-11 53 -101 108 -200 54 -99 112 -207 128 -240 17 -33 33 -62 38 -63 4 -2 5
-8 1 -13 -3 -5 0 -9 5 -9 6 0 11 -4 11 -9 0 -6 25 -50 55 -98 77 -124 194
-363 177 -363 -4 0 -13 9 -20 20 -15 24 -34 27 -25 3 9 -23 -14 -8 -28 19 -10
18 -8 19 11 13 17 -6 21 -4 14 6 -4 8 -39 64 -77 124 -38 61 -75 119 -81 130
-6 11 -13 22 -16 25 -29 27 -200 299 -200 318 0 6 -3 12 -7 14 -9 3 -21 27
-83 163 -23 50 -59 127 -81 171 -40 83 -50 134 -26 134 7 0 24 -19 38 -42z
m-953 -49 l-5 -24 -10 25 c-12 28 -6 47 9 32 5 -5 8 -20 6 -33z m898 -33 c4
-11 10 -23 13 -26 3 -3 49 -90 101 -195 52 -104 97 -192 100 -195 3 -3 16 -27
30 -55 14 -27 31 -56 37 -63 7 -7 13 -17 13 -22 0 -5 6 -15 13 -22 6 -7 18
-25 26 -40 8 -15 22 -36 31 -45 9 -10 19 -25 23 -33 4 -8 21 -33 37 -55 54
-71 90 -126 90 -134 0 -5 7 -14 15 -21 16 -13 20 -30 7 -30 -4 0 -19 18 -32
40 -14 22 -28 40 -32 40 -5 0 -8 6 -8 14 0 8 -4 16 -8 18 -15 6 -133 176 -198
285 -36 59 -118 214 -181 343 -64 129 -119 240 -121 245 -3 6 4 2 16 -9 12
-10 24 -28 28 -40z m-884 -111 c3 -14 1 -28 -3 -31 -5 -3 -9 1 -9 10 0 8 -3
21 -6 30 -3 9 -2 16 4 16 5 0 12 -11 14 -25z m363 -54 c-3 -6 -11 -11 -17 -11
-6 0 -6 6 2 15 14 17 26 13 15 -4z m-354 -18 c0 -5 2 -16 4 -25 2 -10 0 -18
-5 -18 -8 0 -20 24 -20 41 0 11 20 12 21 2z m191 -378 c0 -5 -5 -11 -11 -13
-6 -2 -11 4 -11 13 0 9 5 15 11 13 6 -2 11 -8 11 -13z m-27 -182 c5 -21 9 -42
11 -48 1 -5 14 -66 29 -135 29 -138 40 -218 28 -206 -4 4 -8 11 -9 14 0 4 -4
16 -8 27 -21 53 -69 213 -71 235 -1 8 -7 34 -14 57 -8 28 -8 49 -1 67 13 37
26 32 35 -11z m-70 -53 c3 -5 -1 -10 -9 -10 -9 0 -16 5 -16 10 0 6 4 10 9 10
6 0 13 -4 16 -10z m27 -112 c-15 -15 -26 -4 -18 18 5 13 9 15 18 6 9 -9 9 -15
0 -24z m68 -167 c0 -5 3 -24 6 -42 4 -25 3 -30 -5 -18 -14 22 -21 69 -10 69 5
0 9 -4 9 -9z m20 -120 c5 -11 10 -32 10 -47 0 -39 -27 -13 -32 31 -4 39 6 46
22 16z m1375 -62 c20 -22 34 -43 31 -47 -7 -6 -63 45 -77 71 -17 31 8 18 46
-24z"/>
<path d="M3057 5764 c-1 -1 -24 -4 -52 -7 -160 -17 -449 -154 -633 -300 -223
-176 -369 -376 -481 -658 l-22 -57 20 -40 c38 -75 113 -138 195 -166 l50 -16
69 72 c39 42 88 108 115 155 47 85 101 153 121 153 6 0 11 -15 12 -32 2 -74
13 -196 23 -268 2 -14 7 -47 10 -75 4 -27 9 -63 11 -80 2 -16 7 -52 10 -80 3
-27 8 -63 10 -80 4 -28 6 -50 20 -167 3 -24 7 -68 10 -98 3 -30 7 -73 10 -95
5 -38 10 -93 19 -180 5 -51 16 -141 21 -180 2 -16 7 -55 10 -85 6 -59 14 -120
20 -160 2 -14 7 -49 10 -79 4 -30 9 -63 11 -75 2 -12 7 -39 10 -61 5 -40 10
-69 19 -115 2 -13 7 -42 10 -65 3 -22 8 -51 10 -65 6 -32 13 -88 21 -165 3
-33 10 -78 15 -100 21 -87 35 -168 44 -245 9 -86 12 -103 26 -166 15 -71 16
-73 19 -76 1 -2 3 -12 5 -23 8 -43 49 -174 76 -240 7 -16 13 -32 14 -35 12
-37 96 -213 104 -220 3 -3 17 -25 30 -49 13 -25 30 -52 37 -60 79 -100 140
-169 159 -181 21 -12 26 -12 42 3 21 18 26 47 25 127 -2 60 -16 104 -44 134
-16 18 -23 37 -19 59 1 4 -10 12 -24 17 -14 5 -26 14 -26 20 -3 19 -5 25 -17
47 -6 12 -9 29 -6 37 12 31 32 16 55 -40 l24 -56 11 28 c11 25 10 66 -1 131
-2 13 1 25 6 28 5 4 9 -5 9 -19 0 -46 18 -37 25 12 6 42 1 192 -9 287 -10 87
-16 142 -20 161 -8 40 -45 269 -50 304 -6 48 -17 130 -22 160 -2 14 -6 52 -9
85 -3 33 -8 70 -10 82 -4 16 15 42 83 111 81 84 184 208 224 270 63 98 153
294 229 502 100 270 121 341 134 440 4 25 13 86 20 135 34 215 34 434 -1 605
-2 8 -6 35 -9 59 -3 24 -7 47 -10 51 -2 3 -7 22 -10 41 -9 45 -13 64 -15 64
-1 0 -3 10 -6 22 -9 53 -67 213 -96 273 -27 52 -47 75 -106 120 -40 31 -103
75 -140 97 -59 35 -83 45 -142 60 -16 4 -279 11 -283 7z m338 -54 c3 -5 1 -10
-4 -10 -6 0 -11 5 -11 10 0 6 2 10 4 10 3 0 8 -4 11 -10z m-64 -331 c57 -14
112 -104 124 -204 2 -16 8 -52 12 -80 14 -84 4 -398 -14 -428 -2 -4 -6 -22 -9
-40 -2 -18 -6 -43 -9 -57 -3 -14 -7 -34 -9 -45 -7 -36 -56 -205 -72 -248 -19
-50 -13 -36 -104 -267 -63 -160 -103 -254 -152 -360 -25 -53 -31 -54 -45 -3
-15 57 -53 210 -59 238 -2 11 -6 29 -9 40 -7 28 -25 115 -31 145 -3 14 -13 63
-24 110 -10 47 -29 130 -40 185 -12 55 -35 147 -52 205 -31 110 -36 130 -44
169 -3 14 -7 28 -10 33 -3 4 -7 18 -9 29 -2 12 -14 59 -25 104 -11 45 -23 92
-25 105 -2 12 -7 30 -10 41 -11 32 -13 103 -4 126 9 25 94 90 164 125 57 29
126 53 139 50 4 -2 14 2 20 8 7 5 15 7 18 5 3 -3 17 -1 31 4 15 6 51 12 82 15
31 2 59 7 62 10 6 5 44 0 104 -15z m298 -107 c-1 -4 -1 -9 1 -12 2 -7 9 -46
18 -105 9 -55 8 -283 -2 -357 -3 -26 -17 -71 -32 -100 -26 -51 -35 -132 -18
-160 10 -16 6 -90 -5 -101 -8 -8 -11 -7 -11 1 0 24 -30 12 -31 -13 -1 -14 -2
-31 -3 -37 -4 -25 6 -29 20 -9 8 11 21 18 29 15 18 -7 20 -25 3 -21 -8 1 -44
-72 -46 -96 -1 -7 -20 -54 -59 -145 -23 -57 -43 -106 -43 -109 0 -7 -43 -109
-86 -201 -19 -40 -34 -75 -34 -78 0 -8 -83 -172 -119 -234 -54 -94 -107 -204
-106 -220 1 -16 31 -15 53 2 7 6 15 9 17 6 9 -9 -4 -30 -147 -241 -15 -22 -29
-45 -32 -51 -8 -20 -24 16 -20 42 3 14 19 64 35 111 17 47 31 91 33 96 2 6 5
17 8 25 88 242 142 387 155 417 9 21 17 40 18 43 3 11 27 68 46 108 10 23 28
61 38 85 23 49 43 98 46 112 5 20 78 201 95 235 10 19 18 40 19 45 1 14 10 64
17 100 3 17 7 39 9 50 2 11 9 43 15 70 6 28 13 59 15 70 2 11 11 51 20 89 24
102 29 156 28 316 0 160 -7 247 -23 300 -16 57 -12 58 35 7 25 -27 44 -51 44
-55z m-1088 -304 c1 -13 2 -40 3 -61 1 -21 -1 -40 -6 -43 -4 -3 -8 5 -9 18 0
13 -2 42 -5 66 -3 26 -1 42 6 42 5 0 10 -10 11 -22z m1203 -61 c-2 -28 -6 -86
-9 -127 -5 -72 -9 -98 -20 -165 -3 -16 -8 -52 -11 -80 -3 -27 -8 -53 -10 -56
-2 -4 -6 -23 -9 -42 -4 -20 -17 -76 -31 -124 -14 -48 -27 -96 -28 -105 -1 -10
-5 -21 -9 -24 -4 -4 -7 -14 -7 -23 0 -70 -215 -631 -242 -631 -5 0 -6 -4 -3
-10 3 -5 1 -10 -6 -10 -7 0 -10 -3 -6 -6 3 -3 1 -11 -4 -18 -5 -6 -31 -42 -57
-80 -26 -38 -52 -71 -59 -73 -18 -6 3 70 36 130 16 29 39 79 52 112 13 33 28
63 32 66 5 3 8 9 7 13 -1 7 34 107 50 141 5 11 18 43 28 70 10 28 23 59 27 70
5 11 9 22 10 25 1 3 5 14 10 25 4 11 17 42 27 69 11 27 27 68 37 90 44 98 105
290 127 400 20 103 35 188 39 226 2 25 7 74 11 110 4 36 7 70 7 77 0 7 4 10 8
8 4 -3 5 -29 3 -58z m-1634 -287 c-11 -20 -30 -28 -30 -12 0 11 22 32 32 32 5
0 4 -9 -2 -20z m600 -292 c0 -14 -18 -9 -24 8 -11 28 -6 39 9 20 8 -11 15 -23
15 -28z m-7 -44 c9 -9 -4 -35 -14 -28 -5 3 -9 12 -9 20 0 14 12 19 23 8z m41
-9 c-6 -16 -24 -21 -24 -7 0 11 11 22 21 22 5 0 6 -7 3 -15z m-14 -59 c0 -29
-19 -44 -30 -25 -9 14 5 49 20 49 6 0 10 -11 10 -24z m623 -111 c-5 -13 -23
-22 -23 -11 0 15 14 35 21 31 4 -3 6 -12 2 -20z m-623 -97 c0 -71 6 -131 15
-162 17 -57 28 -159 16 -152 -4 3 -11 26 -14 51 -4 25 -14 59 -22 75 -27 53
-37 229 -16 298 1 1 6 2 11 2 6 0 10 -44 10 -112z m95 43 c3 -5 2 -12 -3 -15
-5 -3 -9 1 -9 9 0 17 3 19 12 6z m729 -236 c-4 -8 -10 -12 -15 -9 -11 6 -2 24
11 24 5 0 7 -7 4 -15z m-329 -24 c3 -5 1 -12 -5 -16 -5 -3 -10 1 -10 9 0 18 6
21 15 7z m-559 -49 c-10 -10 -29 15 -21 28 6 9 10 8 17 -4 6 -10 7 -20 4 -24z
m210 -47 c23 -40 26 -56 25 -126 -1 -54 5 -104 18 -152 43 -151 44 -270 6
-346 -13 -25 -20 -30 -25 -20 -13 22 -39 155 -56 284 -3 28 -8 52 -9 55 -2 3
-6 33 -10 65 -5 55 -4 58 8 35 8 -14 17 -49 21 -78 10 -81 26 -110 20 -37 -2
33 -7 78 -11 100 -12 76 -25 265 -18 265 2 0 16 -20 31 -45z m-69 -17 c-3 -8
-6 -5 -6 6 -1 11 2 17 5 13 3 -3 4 -12 1 -19z m-63 -95 c4 -21 9 -58 11 -82 2
-24 7 -51 10 -60 2 -9 7 -36 10 -61 3 -25 12 -76 20 -115 13 -66 23 -128 26
-150 1 -5 5 -20 10 -32 5 -13 5 -23 0 -23 -13 0 -46 133 -65 260 -3 19 -10 60
-16 90 -24 117 -33 210 -21 210 5 0 12 -17 15 -37z m556 -369 c0 -14 -34 -62
-51 -72 -17 -11 -18 -10 -8 16 6 15 18 35 26 44 16 18 33 24 33 12z m-167
-174 c-7 -25 -19 -34 -39 -26 -12 4 -13 10 -4 26 15 27 50 27 43 0z m-213 -51
c0 -5 -4 -9 -10 -9 -5 0 -10 7 -10 16 0 8 5 12 10 9 6 -3 10 -10 10 -16z m-80
1 c0 -5 -5 -10 -11 -10 -5 0 -7 5 -4 10 3 6 8 10 11 10 2 0 4 -4 4 -10z m320
-27 c0 -10 -4 -24 -9 -32 -7 -11 -10 -9 -16 8 -7 22 0 41 16 41 5 0 9 -8 9
-17z m-303 -100 c27 -202 27 -187 10 -172 -8 8 -14 16 -12 19 2 3 -1 28 -6 55
-13 80 -22 211 -14 203 5 -4 14 -52 22 -105z m242 55 c-8 -16 -14 -19 -17 -9
-2 7 2 24 9 39 11 19 15 21 17 9 2 -9 -2 -26 -9 -39z m-51 5 c-2 -10 -11 -19
-21 -21 -16 -3 -17 -1 -7 17 13 25 33 28 28 4z m-29 -142 c6 -20 12 -54 15
-76 3 -22 7 -51 10 -65 4 -14 8 -43 10 -65 3 -22 7 -47 10 -55 3 -8 7 -34 10
-57 3 -31 1 -40 -9 -37 -7 3 -19 -2 -28 -10 -16 -16 -15 -25 12 -93 18 -47 32
-31 17 20 -15 50 -11 74 10 56 11 -9 14 -8 15 7 8 99 8 102 19 83 9 -15 44
-147 56 -209 31 -163 38 -230 23 -230 -5 0 -8 4 -4 9 3 5 1 12 -5 16 -5 3 -10
15 -10 26 0 10 -5 19 -11 19 -5 0 -7 -5 -4 -11 4 -5 8 -36 10 -67 2 -36 13
-78 29 -114 27 -57 28 -96 5 -141 -10 -18 -13 -15 -39 29 -28 49 -31 76 -4 40
10 -15 14 -16 14 -5 0 8 -4 19 -9 24 -21 23 -155 411 -167 483 -13 82 -17 98
-28 112 -18 20 -26 59 -15 66 5 3 18 -5 29 -18 l19 -23 -5 30 c-8 50 -15 65
-29 65 -20 0 -23 8 -30 80 -3 36 -8 73 -11 83 -4 14 -1 17 13 15 13 -2 19 4
22 22 7 52 46 47 60 -9z m176 -111 c-3 -5 -11 -10 -16 -10 -6 0 -7 5 -4 10 3
6 11 10 16 10 6 0 7 -4 4 -10z m-65 -70 c0 -5 -5 -10 -11 -10 -5 0 -7 5 -4 10
3 6 8 10 11 10 2 0 4 -4 4 -10z m-228 -62 c-9 -9 -12 -7 -12 12 0 19 3 21 12
12 9 -9 9 -15 0 -24z m308 28 c0 -11 -19 -15 -25 -6 -3 5 1 10 9 10 9 0 16 -2
16 -4z m-110 -16 c0 -5 -4 -10 -10 -10 -5 0 -10 5 -10 10 0 6 5 10 10 10 6 0
10 -4 10 -10z m-156 -181 c1 -24 8 -55 15 -67 21 -39 5 -36 -20 4 -21 35 -27
83 -13 106 10 15 15 3 18 -43z m-119 -98 c3 -5 1 -12 -5 -16 -5 -3 -10 1 -10
9 0 18 6 21 15 7z m72 -126 c-34 -32 -77 -49 -62 -25 4 6 10 8 14 6 4 -3 21 8
36 24 16 17 33 30 39 30 6 0 -7 -16 -27 -35z m220 -493 c61 -115 97 -195 83
-187 -5 3 -20 27 -33 53 -36 70 -61 116 -67 122 -10 10 -70 135 -70 145 1 18
34 -33 87 -133z m72 -24 c10 -26 5 -41 -12 -35 -14 4 -21 57 -7 57 6 0 14 -10
19 -22z"/>
<path d="M2892 3173 c6 -27 14 -52 18 -57 8 -7 5 23 -5 74 -2 8 -4 18 -4 23
-1 4 -5 7 -10 7 -5 0 -4 -21 1 -47z"/>
<path d="M3086 2125 c4 -8 8 -15 10 -15 2 0 4 7 4 15 0 8 -4 15 -10 15 -5 0
-7 -7 -4 -15z"/>
<path d="M6830 5236 c0 -7 8 -24 18 -37 10 -13 24 -38 30 -54 10 -25 52 -66
52 -51 0 12 -35 84 -57 117 -26 40 -43 50 -43 25z"/>
<path d="M7335 4735 c2 -22 4 -40 5 -40 0 0 3 -27 5 -60 5 -77 15 -146 21
-157 3 -4 -3 -5 -12 -1 -13 5 -15 3 -9 -7 13 -22 15 -163 2 -180 -10 -12 -8
-12 13 1 13 9 33 28 44 42 16 22 18 30 8 49 -7 13 -14 48 -17 78 -4 56 -9 88
-20 150 -4 19 -8 44 -10 55 -14 84 -37 136 -30 70z"/>
<path d="M6897 4404 c-8 -8 3 -66 15 -79 7 -6 8 6 4 34 -6 48 -9 54 -19 45z"/>
<path d="M6907 4247 c-3 -7 -2 -19 3 -26 5 -10 8 -9 13 2 3 7 2 19 -3 26 -5
10 -8 9 -13 -2z"/>
<path d="M7595 3401 c-3 -5 -2 -12 3 -15 5 -3 9 1 9 9 0 17 -3 19 -12 6z"/>
<path d="M7572 3280 c-7 -25 -16 -52 -19 -60 -10 -25 -18 -58 -32 -128 -9 -46
5 -70 15 -25 3 15 11 46 16 68 6 22 12 48 13 57 2 9 9 26 15 38 6 11 10 38 8
58 l-3 37 -13 -45z"/>
<path d="M7448 2873 c-6 -16 -12 -31 -13 -35 -2 -5 -3 -9 -5 -10 -1 -2 -4 -19
-7 -38 -2 -19 -11 -42 -19 -50 -7 -9 -20 -36 -29 -60 -9 -25 -21 -49 -29 -55
-7 -5 -15 -21 -18 -35 -9 -41 -13 -55 -18 -60 -3 -3 -31 -57 -62 -120 -37 -76
-53 -118 -47 -125 13 -13 19 -2 102 185 38 85 74 158 80 161 5 4 11 23 11 43
1 19 10 44 20 55 10 10 19 25 20 33 1 7 9 27 18 43 22 42 32 95 19 95 -7 0
-17 -12 -23 -27z"/>
<path d="M7157 2228 c-8 -28 -5 -31 18 -14 10 7 15 18 11 24 -11 18 -23 14
-29 -10z"/>
<path d="M7181 2183 c0 -6 -4 -20 -7 -30 -5 -14 -4 -15 5 -7 7 7 11 20 8 30
-3 11 -5 14 -6 7z"/>
<path d="M5865 1659 c-9 -14 -2 -20 14 -10 8 6 9 11 3 15 -6 3 -14 1 -17 -5z"/>
<path d="M6145 1184 c-28 -19 -57 -39 -65 -44 -8 -5 -12 -11 -8 -15 7 -8 41
11 76 42 13 12 33 25 43 28 18 6 27 25 11 25 -4 0 -30 -16 -57 -36z"/>
</g>
</svg>
