<?xml version="1.0" encoding="UTF-8" standalone="no"?>
<svg
   version="1.0"
   width="229.58214pt"
   height="98pt"
   viewBox="0 0 229.58214 98"
   preserveAspectRatio="xMidYMid"
   id="svg69"
   sodipodi:docname="mail.svg"
   inkscape:version="1.2.1 (9c6d41e410, 2022-07-14)"
   xmlns:inkscape="http://www.inkscape.org/namespaces/inkscape"
   xmlns:sodipodi="http://sodipodi.sourceforge.net/DTD/sodipodi-0.dtd"
   xmlns="http://www.w3.org/2000/svg"
   xmlns:svg="http://www.w3.org/2000/svg">
  <defs
     id="defs73" />
  <sodipodi:namedview
     id="namedview71"
     pagecolor="#ffffff"
     bordercolor="#000000"
     borderopacity="0.25"
     inkscape:showpageshadow="2"
     inkscape:pageopacity="0.0"
     inkscape:pagecheckerboard="0"
     inkscape:deskcolor="#d1d1d1"
     inkscape:document-units="pt"
     showgrid="false"
     inkscape:zoom="2.2017857"
     inkscape:cx="153.28467"
     inkscape:cy="78.799676"
     inkscape:window-width="1920"
     inkscape:window-height="976"
     inkscape:window-x="-8"
     inkscape:window-y="-8"
     inkscape:window-maximized="1"
     inkscape:current-layer="g67" />
  <metadata
     id="metadata57">
Created by potrace 1.16, written by Peter Selinger 2001-2019
</metadata>
  <g
     transform="matrix(0.1,0,0,-0.1,-15.417868,199)"
     fill="#000000"
     stroke="none"
     id="g67"
     style="fill:#000000">
    <path
       d="m 905,1978 c -11,-6 -23,-16 -27,-22 -4,-6 -8,-212 -8,-458 0,-435 1,-449 20,-468 20,-20 33,-20 764,-20 737,0 744,0 770,21 l 26,20 v 445 445 l -25,24 -24,25 h -738 c -531,-1 -744,-4 -758,-12 z m 1395,-72 c -28,-25 -638,-506 -643,-506 -5,0 -626,488 -651,511 -6,5 271,9 649,9 559,0 657,-2 645,-14 z M 1184,1690 c 129,-102 234,-188 233,-191 -3,-10 -470,-379 -479,-379 -4,0 -8,171 -8,381 0,225 4,379 9,377 5,-1 115,-86 245,-188 z m 1196,-190 c 0,-209 -2,-380 -5,-380 -14,0 -476,373 -473,382 4,11 459,376 471,377 4,1 7,-170 7,-379 z m -721,-180 c 3,0 45,31 92,69 l 87,70 228,-180 c 126,-100 233,-185 239,-190 5,-5 -250,-9 -649,-9 H 999 l 237,189 238,188 89,-68 c 49,-38 92,-69 96,-69 z"
       id="path59"
       style="fill:#ff7f2a" />
    <path
       d="m 161,1786 c -6,-7 -9,-21 -5,-30 5,-14 40,-16 323,-16 331,0 351,2 330,42 -9,17 -29,18 -323,18 -254,0 -316,-3 -325,-14 z"
       id="path61"
       style="fill:#ffb380" />
    <path
       d="m 312,1521 c -8,-5 -12,-17 -10,-27 3,-18 18,-19 252,-22 261,-2 276,0 255,40 -9,17 -28,18 -247,18 -130,0 -243,-4 -250,-9 z"
       id="path63"
       style="fill:#ffb380" />
    <path
       d="m 434,1245 c -4,-8 -4,-22 0,-30 4,-13 35,-15 185,-15 162,0 181,2 189,18 21,39 8,42 -184,42 -155,0 -186,-2 -190,-15 z"
       id="path65"
       style="fill:#ffb380" />
  </g>
</svg>
